# xmcd
#
# Track frame offsets:
# 150
# 11935
# 31845
# 47460
# 60640
# 74905
# 88930
# 101975
# 114945
# 130170
# 141445
# 153390
# 165980
# 179505
# 191445
# 207545
# 217035
# 229865
# 242220
# 255415
# 271885
# 285795
# 295685
#
# Disc length: 4080 seconds
#
#
# Revision: 0
# Processed by: cddbd v1.4PL0 Copyright (c) Steve Scherf et al.
# Submitted via: FreeRIP 2.30 
#
DISCID=580fee17
DTITLE=Suzanne Prentice - A little bit of Country
DYEAR=1900
DGENRE=Country
TTITLE0=A little bit of rain
TTITLE1=Crazy
TTITLE2=Seattle
TTITLE3=Faraway Places
TTITLE4=Talking in your sleep
TTITLE5=Just a bad dream
TTITLE6=Cheaters prayer
TTITLE7=I'm not lonley yet
TTITLE8=The end of the world
TTITLE9=Four strong winds
TTITLE10=Don't it make my brown eyes blue
TTITLE11=Womanhood
TTITLE12=It's a heartache
TTITLE13=What i got in mind
TTITLE14=Together again
TTITLE15=When will i be loved
TTITLE16=Don't leave my heart
TTITLE17=Paper roses
TTITLE18=We're all alone
TTITLE19=I honestley love you
TTITLE20=One of these days
TTITLE21=Satin sheets
TTITLE22=Crying in the chapel
EXTD=
EXTT0=
EXTT1=
EXTT2=
EXTT3=
EXTT4=
EXTT5=
EXTT6=
EXTT7=
EXTT8=
EXTT9=
EXTT10=
EXTT11=
EXTT12=
EXTT13=
EXTT14=
EXTT15=
EXTT16=
EXTT17=
EXTT18=
EXTT19=
EXTT20=
EXTT21=
EXTT22=
PLAYORDER=
